<?xml version="1.0" encoding="utf-8"?>
<!-- Generator: Adobe Illustrator 28.1.0, SVG Export Plug-In . SVG Version: 6.00 Build 0)  -->
<svg version="1.1" xmlns="http://www.w3.org/2000/svg" xmlns:xlink="http://www.w3.org/1999/xlink" x="0px" y="0px"
	 viewBox="0 0 138.2 84" style="enable-background:new 0 0 138.2 84;" xml:space="preserve">
<style type="text/css">
	.st0{display:none;}
	.st1{display:inline;}
	.st2{fill:#FFFFFF;}
</style>
<g id="Layer_3">
</g>
<g id="Layer_2" class="st0">
</g>
<g id="Layer_1">
	<g>
		<path class="st2" d="M84.6,48.3v-4.4L81,36.3h3.3l1.8,4.8l1.8-4.8h3.3l-3.6,7.7v4.4H84.6z"/>
		<path class="st2" d="M98.2,48.3l-2.8-3.9h0v3.9h-3V36.3h3.9c1.3,0,2.2,0.2,2.9,0.4c1.3,0.6,2.2,2,2.2,3.7c0,1.9-1.1,3.5-3,3.8
			l3.3,4.1H98.2z M96.6,42.3c1.2,0,2-0.6,2-1.7c0-1-0.8-1.6-1.9-1.6h-1.2v3.4H96.6z"/>
		<path class="st2" d="M107.8,39.8c-0.1-0.9-0.5-1.2-1.1-1.2c-0.6,0-1.1,0.4-1.1,0.9c0,0.7,0.7,1,2,1.6c2.7,1.1,3.3,2.1,3.3,3.7
			c0,2.3-1.6,3.7-4.2,3.7c-2.6,0-4.4-1.4-4.4-4v-0.3h3.1c0,1,0.5,1.6,1.3,1.6c0.6,0,1.2-0.5,1.2-1.2c0-1-1.3-1.4-2.4-1.8
			c-2-0.8-2.9-1.8-2.9-3.4c0-2.1,2-3.6,4.2-3.6c0.8,0,1.5,0.2,2.1,0.5c1.3,0.7,1.9,1.6,1.9,3.2H107.8z"/>
	</g>
	<g>
		<polygon class="st2" points="54.7,0 18.8,0 10.7,18.5 54.7,18.5 		"/>
		<path class="st2" d="M54.5,35.2c-5.6-7.3-14.3-12-24.1-12v0H9L1.1,41.2h29.2v0c6.9,0,12.5,5.6,12.5,12.6c0,5.6-3.7,10.4-8.8,12V84
			c12-1.5,21.9-10,25.4-21.3c6.6,11.7,18.7,19.8,32.7,21.2V64.7C81.3,62.8,73,53.3,73,41.9c0-11.4,8.3-20.9,19.2-22.8V0
			C73,1.8,57.5,16.5,54.5,35.2z"/>
		<path class="st2" d="M100,0v19.1c10.9,1.9,19.2,11.4,19.2,22.8c0,11.4-8.3,20.9-19.2,22.8v19.1c21.4-2,38.1-20,38.1-41.9
			C138.2,20,121.4,2,100,0z"/>
		<path class="st2" d="M18.2,56.8H0C1.4,70.9,12.6,82.3,26.6,84V65.7C22.5,64.4,19.2,61,18.2,56.8z"/>
	</g>
</g>
<g id="Layer_5">
</g>
<g id="Layer_4">
</g>
</svg>
