<?xml version="1.0" encoding="utf-8"?>
<!-- Generator: Adobe Illustrator 28.1.0, SVG Export Plug-In . SVG Version: 6.00 Build 0)  -->
<svg version="1.1" id="Layer_1" xmlns="http://www.w3.org/2000/svg" xmlns:xlink="http://www.w3.org/1999/xlink" x="0px" y="0px"
	 viewBox="0 0 378.2 86.1" style="enable-background:new 0 0 378.2 86.1;" xml:space="preserve">
<style type="text/css">
	.st0{display:none;}
	.st1{display:inline;}
	.st2{fill:#FFFFFF;}
	.st3{fill-rule:evenodd;clip-rule:evenodd;fill:#FFFFFF;}
</style>
<g id="Layer_1_00000118372798676461371920000017740043404163601305_">
	<g>
		<path class="st2" d="M84.6,50.4V46L81,38.4h3.3l1.8,4.8l1.8-4.8h3.3l-3.6,7.7v4.4h-3V50.4z"/>
		<path class="st2" d="M98.2,50.4l-2.8-3.9l0,0v3.9h-3v-12h3.9c1.3,0,2.2,0.2,2.9,0.4c1.3,0.6,2.2,2,2.2,3.7c0,1.9-1.1,3.5-3,3.8
			l3.3,4.1H98.2z M96.6,44.4c1.2,0,2-0.6,2-1.7c0-1-0.8-1.6-1.9-1.6h-1.2v3.4h1.1V44.4z"/>
		<path class="st2" d="M107.8,41.9c-0.1-0.9-0.5-1.2-1.1-1.2s-1.1,0.4-1.1,0.9c0,0.7,0.7,1,2,1.6c2.7,1.1,3.3,2.1,3.3,3.7
			c0,2.3-1.6,3.7-4.2,3.7s-4.4-1.4-4.4-4v-0.3h3.1c0,1,0.5,1.6,1.3,1.6c0.6,0,1.2-0.5,1.2-1.2c0-1-1.3-1.4-2.4-1.8
			c-2-0.8-2.9-1.8-2.9-3.4c0-2.1,2-3.6,4.2-3.6c0.8,0,1.5,0.2,2.1,0.5c1.3,0.7,1.9,1.6,1.9,3.2h-3V41.9z"/>
	</g>
	<g>
		<polygon class="st2" points="54.7,2.1 18.8,2.1 10.7,20.6 54.7,20.6 		"/>
		<path class="st2" d="M54.5,37.3c-5.6-7.3-14.3-12-24.1-12l0,0H9l-7.9,18h29.2l0,0c6.9,0,12.5,5.6,12.5,12.6c0,5.6-3.7,10.4-8.8,12
			v18.3c12-1.5,21.9-10,25.4-21.3C66,76.6,78.1,84.7,92.1,86.1V66.8C81.3,64.9,73,55.4,73,44s8.3-20.9,19.2-22.8V2.1
			C73,3.9,57.5,18.6,54.5,37.3z"/>
		<path class="st2" d="M100,2.1v19.1c10.9,1.9,19.2,11.4,19.2,22.8s-8.3,20.9-19.2,22.8v19.1c21.4-2,38.1-20,38.1-41.9
			C138.2,22.1,121.4,4.1,100,2.1z"/>
		<path class="st2" d="M18.2,58.9H0C1.4,73,12.6,84.4,26.6,86.1V67.8C22.5,66.5,19.2,63.2,18.2,58.9z"/>
	</g>
	<g>
		<path class="st2" d="M169.9,50.1c-0.9-2.3-2.9-3.7-5.1-3.7c-3.3,0-5.6,2.9-5.6,6.1c0,3.4,2.3,6.2,5.6,6.2c2.1,0,3.9-1.2,5-3.5h5.6
			c-1.3,5-5.6,8.2-10.6,8.2c-2.9,0-5.7-1-7.8-3.1c-2.3-2.2-3.2-4.9-3.2-8.1c0-5.6,4.8-10.6,10.8-10.6c2.9,0,5.2,0.8,7.3,2.6
			c2,1.7,3.2,3.6,3.5,5.8h-5.5V50.1z"/>
		<path class="st2" d="M177.1,53.1c0-6.5,4.7-11.4,11.1-11.4c6.1,0,11.1,4.7,11.1,10.7c0,6.2-4.8,11-10.8,11
			C182.6,63.5,177.1,59.3,177.1,53.1z M193.9,52.7c0-3.3-2.4-6.2-5.7-6.2s-5.7,2.8-5.7,6.1c0,3.5,2.4,6.2,5.8,6.2
			C191.6,58.8,193.9,56,193.9,52.7z"/>
		<path class="st2" d="M214.9,63.1l-8.1-12.8l0.1,12.8h-5.1v-21h4.6l8.2,13.3l-0.2-13.3h5.1v21H214.9z"/>
		<path class="st2" d="M231.3,48.3c-0.2-1.5-0.9-2-1.9-2s-1.8,0.7-1.8,1.6c0,1.2,1.1,1.8,3.4,2.8c4.6,2,5.8,3.7,5.8,6.4
			c0,4.1-2.8,6.4-7.3,6.4c-4.6,0-7.6-2.4-7.6-6.9v-0.5h5.3c0,1.7,0.9,2.9,2.2,2.9c1.1,0,2-0.9,2-2c0-1.7-2.3-2.4-4.2-3.2
			c-3.4-1.4-5-3.2-5-5.9c0-3.6,3.5-6.2,7.3-6.2c1.4,0,2.6,0.3,3.7,0.9c2.2,1.2,3.3,2.8,3.3,5.6h-5.2V48.3z"/>
		<path class="st2" d="M241.6,63.1V46.9h-4.1v-4.7h13.6v4.7H247v16.3h-5.4V63.1z"/>
		<path class="st2" d="M263,63.1l-4.8-6.8h-0.1v6.8H253v-21h6.9c2.2,0,3.9,0.3,5,0.8c2.3,1,3.9,3.5,3.9,6.5c0,3.3-2,6-5.2,6.6
			l5.7,7.1C269.3,63.1,263,63.1,263,63.1z M260,52.7c2.1,0,3.4-1,3.4-3c0-1.8-1.4-2.8-3.4-2.8h-2v5.8H260z"/>
		<path class="st2" d="M281.8,42.2h5.4V55c0,2.2-0.3,3.8-1,5c-1.4,2.2-3.7,3.6-6.9,3.6c-1.8,0-3.3-0.3-4.5-1
			c-2.5-1.4-3.7-3.4-3.7-7.5V42.2h5.4V55c0,2.6,0.8,3.9,2.7,3.9c1.8,0,2.7-0.9,2.7-3.9V42.2H281.8z"/>
		<path class="st2" d="M305.8,50.1c-0.9-2.3-2.9-3.7-5.1-3.7c-3.3,0-5.6,2.9-5.6,6.1c0,3.4,2.3,6.2,5.6,6.2c2.1,0,3.9-1.2,5-3.5h5.6
			c-1.3,5-5.6,8.2-10.6,8.2c-2.9,0-5.7-1-7.8-3.1c-2.3-2.2-3.2-4.9-3.2-8.1c0-5.6,4.8-10.6,10.8-10.6c2.9,0,5.2,0.8,7.3,2.6
			c2,1.7,3.2,3.6,3.5,5.8h-5.5V50.1z"/>
		<path class="st2" d="M316.5,63.1V46.9h-4.1v-4.7H326v4.7h-4.1v16.3h-5.4V63.1z"/>
		<path class="st2" d="M327.8,63.1v-21h5.4v21H327.8z"/>
		<path class="st2" d="M335.8,53.1c0-6.5,4.7-11.4,11.1-11.4c6.1,0,11.1,4.7,11.1,10.7c0,6.2-4.8,11-10.8,11
			C341.2,63.5,335.8,59.3,335.8,53.1z M352.6,52.7c0-3.3-2.4-6.2-5.7-6.2c-3.3,0-5.7,2.8-5.7,6.1c0,3.5,2.4,6.2,5.8,6.2
			C350.2,58.8,352.6,56,352.6,52.7z"/>
		<path class="st2" d="M373.6,63.1l-8.1-12.8l0.1,12.8h-5.1v-21h4.6l8.2,13.3l-0.2-13.3h5.1v21H373.6z"/>
	</g>
	<rect x="153.9" y="77.8" class="st2" width="60" height="1"/>
	<rect x="322.2" y="77.8" class="st2" width="56" height="1"/>
	<g>
		<path class="st2" d="M230.7,76c-0.1-0.8-0.4-1.1-1-1.1c-0.5,0-1,0.4-1,0.9c0,0.7,0.6,1,1.8,1.5c2.4,1.1,3.1,1.9,3.1,3.4
			c0,2.1-1.5,3.4-3.9,3.4s-4-1.3-4-3.6v-0.2h2.8c0,0.9,0.5,1.5,1.2,1.5c0.6,0,1.1-0.5,1.1-1.1c0-0.9-1.2-1.3-2.2-1.7
			c-1.8-0.7-2.6-1.7-2.6-3.1c0-1.9,1.8-3.3,3.9-3.3c0.7,0,1.4,0.2,2,0.5c1.2,0.6,1.8,1.5,1.8,3h-3V76z"/>
		<path class="st2" d="M235,83.9V72.8h2.8v11.1H235z"/>
		<path class="st2" d="M246.7,83.9l-4.3-6.8l0.1,6.8h-2.7V72.8h2.4l4.3,7l-0.1-7h2.7v11.1H246.7z"/>
		<path class="st2" d="M259.2,77c-0.5-1.2-1.5-1.9-2.7-1.9c-1.8,0-3,1.5-3,3.2c0,1.8,1.2,3.3,3,3.3c1.1,0,2.1-0.6,2.7-1.9h3
			c-0.7,2.7-3,4.4-5.6,4.4c-1.5,0-3-0.5-4.1-1.7c-1.2-1.2-1.7-2.6-1.7-4.3c0-2.9,2.5-5.6,5.7-5.6c1.5,0,2.8,0.4,3.9,1.4
			c1,0.9,1.7,1.9,1.9,3.1H259.2z"/>
		<path class="st2" d="M263.6,83.9V72.8h6.2v2.5h-3.4V77h3.3v2.5h-3.3v1.9h3.4v2.5H263.6z"/>
		<path class="st2" d="M278.5,83.9v-8.7h-1.8v-2.4h4.6v11.1H278.5z"/>
		<path class="st2" d="M286.3,83.9l2.5-3.4c-0.2,0.1-0.4,0.1-0.6,0.1c-1.9,0-3.5-1.5-3.5-3.8c0-2.4,1.9-4.2,4.3-4.2
			c2.3,0,4.4,1.4,4.4,4.1c0,1.1-0.3,2-1.1,3.1l-2.7,4h-3.3V83.9z M289.1,75.1c-0.8,0-1.5,0.6-1.5,1.5s0.6,1.5,1.5,1.5
			s1.5-0.6,1.5-1.5C290.6,75.8,289.9,75.1,289.1,75.1z"/>
		<path class="st2" d="M294.8,83.9l4.1-8.7h-4.3v-2.4h7.2V75l-3.9,8.9H294.8z"/>
		<path class="st2" d="M308,83.9V82h-4.9v-2.1l5-7.1h2.6v6.9h1.2v2.2h-1.2v1.9L308,83.9L308,83.9z M308.2,76.2L308.2,76.2l-2.2,3.5
			h2.2V76.2z"/>
	</g>
	<g>
		<rect x="215.5" y="0" class="st2" width="4.2" height="15.4"/>
		<polygon class="st2" points="230.6,0 220.6,10.7 230.6,21.5 235.6,21.5 225.6,10.7 235.6,0 		"/>
		<g>
			<path class="st2" d="M268.2,12.4c-0.8-4.1-4.9-6.7-9-5.9c-0.9,0.2-1.7,0.5-2.4,0.9V0h-3.6v15.4h3.9c-0.2-0.5-0.3-1-0.3-1.5
				c0-2.1,1.7-3.9,3.9-3.9c2.1,0,3.9,1.7,3.9,3.9c0,2.1-1.7,3.9-3.9,3.9c-0.5,0-1-0.1-1.4-0.3v3.9c0.9,0.2,1.9,0.2,2.9,0
				C266.4,20.5,269,16.5,268.2,12.4"/>
			<path class="st2" d="M285.7,12.4c-0.7-3.6-3.9-6.1-7.4-6.1s-6.7,2.5-7.4,6.1c-0.2,1-0.2,2,0,3h3.9c-0.2-0.5-0.3-1-0.3-1.5
				c0-2.1,1.7-3.9,3.9-3.9c2.1,0,3.9,1.7,3.9,3.9c0,2.1-1.7,3.9-3.9,3.9c-0.5,0-1-0.1-1.4-0.3v3.9c0.9,0.2,1.9,0.2,2.9,0
				C283.9,20.5,286.6,16.5,285.7,12.4"/>
			<path class="st2" d="M249.2,14.2V6.1h-3.6v8.1l0,0c0,2-1.6,3.6-3.6,3.6c-0.6,0-1.1-0.1-1.6-0.4v3.8c0.5,0.1,1.1,0.2,1.6,0.2
				C246,21.4,249.2,18.2,249.2,14.2L249.2,14.2z"/>
			<path class="st2" d="M238.6,15.4c-0.1-0.4-0.2-0.8-0.2-1.2l0,0V6.1h-3.6v8.1c0,0.4,0,0.8,0.1,1.2
				C234.9,15.4,238.6,15.4,238.6,15.4z"/>
			<polygon class="st2" points="296.7,6.1 293,6.1 293,0 289,0 289,21.5 293,21.5 293,10.1 296.7,10.1 			"/>
			<path class="st2" d="M313,12.4c-0.7-3.6-3.9-6.1-7.4-6.1s-6.7,2.5-7.4,6.1c-0.2,1-0.2,2,0,3h3.9c-0.2-0.5-0.3-1-0.3-1.5
				c0-2.1,1.7-3.9,3.9-3.9c2.1,0,3.9,1.7,3.9,3.9c0,2.1-1.7,3.9-3.9,3.9c-0.5,0-1-0.1-1.4-0.3v3.9c0.9,0.2,1.9,0,2.9-0.2
				c0.7-0.2,1.7-0.7,2.4-1.5v1.9h3.6v-7C313.1,13.8,313.1,13.1,313,12.4"/>
			<path class="st3" d="M315.7,21.5c0.9,0,1.8-0.7,1.8-1.7s-0.8-1.7-1.8-1.7s-1.8,0.7-1.8,1.7C314,20.7,314.8,21.5,315.7,21.5
				 M314.3,19.7c0-0.8,0.6-1.4,1.4-1.4s1.4,0.6,1.4,1.4s-0.6,1.5-1.4,1.5C315,21.2,314.3,20.6,314.3,19.7 M315.4,19.9h0.3l0.5,0.9
				h0.3l-0.6-0.9c0.3,0,0.5-0.2,0.5-0.6s-0.2-0.6-0.7-0.6h-0.8v2h0.3v-0.8H315.4z M315.4,19.6V19h0.4c0.2,0,0.4,0,0.4,0.3
				s-0.2,0.3-0.5,0.3C315.7,19.6,315.4,19.6,315.4,19.6z"/>
		</g>
	</g>
</g>
</svg>
