<svg width="525" height="495" viewBox="0 0 525 495" fill="none" xmlns="http://www.w3.org/2000/svg">
<path d="M58.5366 490.576C57.04 490.576 55.5433 490.41 54.2129 488.914C52.051 490.244 49.8892 490.909 47.561 490.909C43.4036 490.909 38.9136 488.415 38.9136 483.093C38.9136 478.769 42.0732 476.441 45.0666 475.111C44.2351 473.781 43.4036 472.284 43.4036 470.787C43.4036 466.463 47.3947 465.299 49.8892 465.299C52.5499 465.299 56.0422 466.63 56.0422 470.787C56.0422 472.118 55.5433 474.945 51.3859 476.608C52.051 477.605 52.7162 478.603 53.3814 479.601L54.7118 481.596C55.2107 480.266 55.377 480.1 55.8759 477.772L60.3659 479.435C59.3681 482.262 59.2018 482.927 57.7052 485.421C58.3703 486.419 59.5344 486.585 60.5322 486.585H61.53V490.576H58.5366ZM47.3947 478.603L46.5632 479.102C45.3992 479.933 44.5677 481.098 44.5677 482.594C44.5677 483.925 45.5655 486.419 48.3925 486.419C49.7229 486.419 50.7207 485.92 51.8848 485.255L47.3947 478.603ZM49.8892 468.958C49.0577 468.958 48.0599 469.457 48.0599 470.455C48.0599 471.286 48.5588 471.785 49.224 473.115C50.2218 472.616 51.5522 471.619 51.5522 470.455C51.5522 469.457 50.887 468.958 49.8892 468.958Z" fill="white"/>
<path d="M98.7806 490.576L97.4502 486.585H88.1375L86.8072 490.576H80.1553L89.4679 465.299H96.1198L105.432 490.576H98.7806ZM92.7939 471.286L89.6342 481.929H96.1198L92.7939 471.286Z" fill="white"/>
<path d="M116.408 465.299H128.215C134.867 465.299 137.195 468.293 137.195 471.951C137.195 476.275 133.37 477.439 131.874 477.605C134.368 477.772 138.193 479.102 138.193 483.426C138.193 488.082 134.036 490.576 128.88 490.576H116.408V465.299ZM127.217 475.277C128.548 475.277 131.042 475.111 131.042 472.616C131.042 470.122 128.88 470.122 127.716 470.122H122.561V475.443H127.217V475.277ZM126.885 485.92C128.88 485.92 131.707 485.754 131.707 482.927C131.707 479.933 129.213 479.767 127.883 479.767H122.395V485.92H126.885Z" fill="white"/>
<path d="M163.47 480.599C163.47 486.918 159.479 491.075 152.661 491.075C146.674 491.075 142.018 487.916 142.018 480.931V465.299H148.337V481.763C148.337 485.089 150 485.92 152.827 485.92C155.987 485.92 157.151 484.257 157.151 481.43V465.299H163.47V480.599Z" fill="white"/>
<path d="M189.911 484.756C187.916 488.248 184.257 491.242 179.102 491.242C172.45 491.242 166.962 486.419 166.962 477.772C166.962 470.288 172.118 464.468 179.268 464.468C183.925 464.468 188.082 467.295 189.911 470.953L184.922 473.448C184.424 471.619 182.095 469.623 179.601 469.623C175.444 469.623 173.448 473.448 173.448 477.605C173.448 483.093 176.275 485.92 179.601 485.92C182.927 485.92 184.257 483.592 185.089 482.095L189.911 484.756Z" fill="white"/>
<path d="M208.703 490.576L202.051 479.102L198.226 483.093V490.576H192.24V465.299H198.226V475.61L207.705 465.299H215.355L206.375 474.612L216.02 490.576H208.703Z" fill="white"/>
<path d="M217.018 465.299H235.643V470.122H223.337V474.778H234.812V479.601H223.337V485.588H236.807V490.576H217.018V465.299Z" fill="white"/>
<path d="M249.945 470.288V490.576H243.625V470.288H236.973V465.299H256.43V470.288H249.945Z" fill="white"/>
<path d="M267.572 490.576V465.299H273.891V485.255H283.703V490.576H267.572Z" fill="white"/>
<path d="M296.674 464.468C305.82 464.468 309.479 472.117 309.479 478.104C309.479 484.922 304.823 491.242 296.674 491.242C288.359 491.242 284.036 484.756 284.036 477.772C284.202 471.951 287.528 464.468 296.674 464.468ZM296.84 485.92C301.497 485.92 303.16 481.596 303.16 477.938C303.16 473.282 301.164 469.789 296.674 469.789C291.851 469.789 290.355 474.279 290.355 477.772C290.521 481.763 292.35 485.92 296.84 485.92Z" fill="white"/>
<path d="M327.106 490.576L325.776 486.585H316.463L315.133 490.576H308.481L317.794 465.299H324.446L333.758 490.576H327.106ZM321.12 471.286L317.96 481.929H324.446L321.12 471.286Z" fill="white"/>
<path d="M335.255 465.299H343.902C353.714 465.299 357.871 469.623 357.871 477.938C357.871 483.925 355.211 490.576 345.233 490.576H335.255V465.299ZM341.574 485.421H343.57C349.058 485.421 351.386 483.592 351.386 477.772C351.386 473.78 350.055 470.621 344.568 470.621H341.408V485.421H341.574Z" fill="white"/>
<path d="M391.463 490.576C391.463 490.576 391.463 476.608 391.63 471.619L386.308 490.576H380.82L375.665 471.619C375.831 475.111 375.831 490.576 375.831 490.576H369.678V465.299H378.991L383.814 482.927L388.47 465.299H397.783V490.576H391.463Z" fill="white"/>
<path d="M413.747 464.468C422.894 464.468 426.552 472.117 426.552 478.104C426.552 484.922 421.896 491.242 413.747 491.242C405.432 491.242 401.109 484.756 401.109 477.772C401.275 471.951 404.601 464.468 413.747 464.468ZM413.914 485.92C418.57 485.92 420.233 481.596 420.233 477.938C420.233 473.282 418.237 469.789 413.747 469.789C408.925 469.789 407.428 474.279 407.428 477.772C407.428 481.763 409.257 485.92 413.914 485.92Z" fill="white"/>
<path d="M441.353 465.299C445.177 465.299 450.998 466.297 450.998 473.448C450.998 477.772 448.503 479.435 445.843 480.432L451.663 490.576H444.678L439.69 481.596H435.698V490.576H429.379V465.299H441.353ZM435.698 476.774H440.854C444.512 476.774 444.678 474.113 444.678 473.282C444.678 469.956 442.018 469.956 440.854 469.956H435.698V476.774Z" fill="white"/>
<path d="M455.155 465.299H473.781V470.122H461.475V474.778H472.949V479.601H461.475V485.588H474.945V490.576H455.155V465.299Z" fill="white"/>
<path d="M483.758 472.616L482.095 481.929H479.767L478.104 472.949V465.466H483.758V472.616ZM478.104 490.576V484.423H483.758V490.576H478.104Z" fill="white"/>
<path d="M135.2 348.392V311.641H103.603V348.392H81.9845V262.084H103.769V293.348H135.366V262.084H156.984V348.392H135.2Z" fill="#F15A22"/>
<path d="M174.945 348.392V262.084H196.397V348.392H174.945Z" fill="#F15A22"/>
<path d="M214.856 348.392V262.084H236.308V330.266H270.066V348.559H214.856V348.392Z" fill="#F15A22"/>
<path d="M350.554 314.302C350.554 335.92 336.752 350.388 313.304 350.388C293.016 350.388 276.718 339.579 276.718 315.798V262.084H298.503V318.293C298.503 329.767 304.324 332.594 313.969 332.594C324.945 332.594 328.769 327.106 328.769 317.129V262.084H350.388V314.302H350.554Z" fill="#F15A22"/>
<path d="M424.224 348.392L402.106 315.798L379.656 348.392H354.878L388.304 301.497L359.534 261.918H385.144L401.774 288.027L418.736 261.918H443.847L415.41 301.497L449.169 348.392H424.224Z" fill="#F15A22"/>
<path d="M57.2063 391.962C54.5455 386.641 48.5588 381.652 40.244 381.652C28.6032 381.652 21.2861 390.299 21.2861 405.266C21.2861 413.914 23.9468 429.213 40.4103 429.213C47.0621 429.213 55.7096 426.053 56.3748 415.577H39.9114V401.774H71.5078V442.184H57.2063V435.532C48.3925 443.515 39.9114 443.847 35.7539 443.847C13.1375 443.847 2.99341 424.224 2.99341 405.765C2.99341 388.47 13.1375 366.852 38.9136 366.852C58.2041 366.852 68.0156 379.823 71.0089 383.648L57.2063 391.962Z" fill="white"/>
<path d="M118.903 369.346C129.712 369.346 146.84 372.173 146.84 392.96C146.84 405.432 139.856 410.255 131.874 413.082L148.67 442.184H128.714L114.08 416.075H102.772V442.184H84.479V369.346H118.903ZM102.772 402.605H117.905C128.381 402.605 128.88 394.789 128.88 392.461C128.88 382.982 121.231 382.816 118.071 382.816H102.938V402.605H102.772Z" fill="white"/>
<path d="M227.993 390.965C222.672 385.477 216.685 381.818 208.869 381.818C201.386 381.818 198.06 386.142 198.06 389.634C198.06 393.625 201.22 395.455 207.373 396.286L215.355 397.45C234.313 400.111 242.129 405.931 242.129 418.404C242.129 433.869 229.823 443.847 209.036 443.847C192.073 443.847 183.259 437.694 175.776 429.047L189.579 420.233C194.401 426.053 202.716 429.379 210.699 429.379C216.02 429.379 224.169 427.051 224.169 420.898C224.169 415.743 218.016 414.246 211.53 413.415L203.215 412.251C190.41 410.421 179.934 404.435 179.934 391.63C179.934 377.328 190.577 367.184 209.368 367.184C224.834 367.184 234.313 374.169 241.463 380.987L227.993 390.965Z" fill="white"/>
<path d="M290.189 369.346C307.483 369.346 316.464 377.495 316.464 394.291C316.464 412.749 300.166 418.404 287.029 418.404H272.228V442.184H253.936V369.346H290.189ZM272.395 404.767H284.368C292.683 404.767 298.337 402.772 298.337 393.293C298.337 382.816 289.69 382.65 284.036 382.65H272.395V404.767Z" fill="white"/>
<path d="M357.705 367.018C384.313 367.018 394.623 388.969 394.623 406.264C394.623 425.721 381.319 444.346 357.871 444.346C333.758 444.346 321.619 425.388 321.619 405.432C321.619 388.803 331.264 367.018 357.705 367.018ZM358.038 428.88C371.508 428.88 376.497 416.242 376.497 406.098C376.497 392.96 370.676 382.317 357.871 382.317C344.069 382.317 339.745 395.455 339.745 405.266C339.579 416.907 344.9 428.88 358.038 428.88Z" fill="white"/>
<path d="M437.528 369.346C448.337 369.346 465.466 372.173 465.466 392.96C465.466 405.432 458.481 410.255 450.499 413.082L467.295 442.184H447.339L432.705 416.075H421.397V442.184H402.938V369.346H437.528ZM421.231 402.605H436.364C446.84 402.605 447.339 394.789 447.339 392.461C447.339 382.982 439.69 382.816 436.53 382.816H421.397V402.605H421.231Z" fill="white"/>
<path d="M504.213 383.647V442.184H485.754V383.647H466.796V369.346H523.005V383.647H504.213Z" fill="white"/>
<path d="M185.92 240.466L184.59 235.976H174.113L172.783 240.466H165.299L175.776 212.029H183.259L193.736 240.466H185.92ZM179.102 218.847L175.61 230.82H182.761L179.102 218.847Z" fill="white"/>
<path d="M219.346 217.683V240.466H212.195V217.683H204.712V212.029H226.663V217.683H219.346Z" fill="white"/>
<path d="M241.796 211.197C252.106 211.197 256.264 219.678 256.264 226.497C256.264 234.146 251.109 241.297 241.962 241.297C232.65 241.297 227.827 233.98 227.827 226.164C227.661 219.678 231.486 211.197 241.796 211.197ZM241.796 235.31C247.118 235.31 248.947 230.321 248.947 226.497C248.947 221.341 246.619 217.184 241.63 217.184C236.308 217.184 234.645 222.339 234.645 226.164C234.645 230.654 236.807 235.31 241.796 235.31Z" fill="white"/>
<path d="M271.896 227.162V240.632H264.911V227.328L254.268 212.195H262.417L268.57 221.84L274.723 212.195H282.871L271.896 227.162Z" fill="white"/>
<path d="M295.51 211.197C305.82 211.197 309.978 219.678 309.978 226.497C309.978 234.146 304.823 241.297 295.676 241.297C286.364 241.297 281.541 233.98 281.541 226.164C281.541 219.678 285.366 211.197 295.51 211.197ZM295.676 235.31C300.998 235.31 302.827 230.321 302.827 226.497C302.827 221.341 300.499 217.184 295.51 217.184C290.188 217.184 288.525 222.339 288.525 226.164C288.525 230.654 290.521 235.31 295.676 235.31Z" fill="white"/>
<path d="M325.443 217.683V240.466H318.293V217.683H310.809V212.029H332.761V217.683H325.443Z" fill="white"/>
<path d="M349.39 240.466L348.06 235.976H337.583L336.253 240.466H328.769L339.246 212.029H346.73L357.206 240.466H349.39ZM342.738 218.847L339.246 230.82H346.397L342.738 218.847Z" fill="white"/>
<path d="M452.661 223.836H373.503V226.663H452.661V223.836Z" fill="white"/>
<path d="M149.169 223.836H70.0111V226.663H149.169V223.836Z" fill="white"/>
<path d="M209.701 187.749H163.47L131.208 73.0044L98.7805 187.749H52.5499L7.15076 8.64746H52.051L78.4922 132.04L110.92 8.64746H150.831L184.257 132.04L210.366 8.64746H255.1L209.701 187.749Z" fill="white"/>
<path d="M265.244 187.749V8.64746H309.978V187.916H265.244V187.749Z" fill="white"/>
<path d="M454.49 187.749L390.965 80.6541V187.749H347.727V8.64746H391.63L455.321 117.738V8.64746H498.226V187.916H454.49V187.749Z" fill="white"/>
</svg>
